<svg width="14" height="15" viewBox="0 0 14 15" fill="none" xmlns="http://www.w3.org/2000/svg">
<path d="M11.8245 5.15795H2.00298C1.77927 5.15795 1.59375 4.97243 1.59375 4.74872C1.59375 4.525 1.77927 4.33949 2.00298 4.33949H11.8245C12.0482 4.33949 12.2338 4.525 12.2338 4.74872C12.2338 4.97243 12.0482 5.15795 11.8245 5.15795Z" fill="#00092E"/>
<path d="M10.1874 7.88615H3.6397C3.41599 7.88615 3.23047 7.70063 3.23047 7.47692C3.23047 7.25321 3.41599 7.06769 3.6397 7.06769H10.1874C10.4111 7.06769 10.5966 7.25321 10.5966 7.47692C10.5966 7.70063 10.4111 7.88615 10.1874 7.88615Z" fill="#00092E"/>
<path d="M8.00512 10.6144H5.82256C5.59885 10.6144 5.41333 10.4288 5.41333 10.2051C5.41333 9.98142 5.59885 9.7959 5.82256 9.7959H8.00512C8.22884 9.7959 8.41436 9.98142 8.41436 10.2051C8.41436 10.4288 8.22884 10.6144 8.00512 10.6144Z" fill="#00092E"/>
</svg>
